<?xml version="1.0" standalone="no"?>
<!DOCTYPE svg PUBLIC "-//W3C//DTD SVG 20010904//EN"
 "http://www.w3.org/TR/2001/REC-SVG-20010904/DTD/svg10.dtd">
<svg version="1.0" xmlns="http://www.w3.org/2000/svg"
 width="500.000000pt" height="500.000000pt" viewBox="0 0 500.000000 500.000000"
 preserveAspectRatio="xMidYMid meet">

<g transform="translate(0.000000,500.000000) scale(0.100000,-0.100000)"
fill="#000000" stroke="none">
<path d="M1470 3451 c0 -120 11 -158 24 -81 4 23 18 54 35 72 l29 33 211 3
212 3 -3 -283 c-3 -239 -6 -293 -21 -347 -19 -63 -19 -64 3 -128 20 -59 22
-81 18 -256 -3 -169 -5 -195 -22 -220 -22 -33 -65 -57 -101 -57 -14 0 -25 -4
-25 -10 0 -6 77 -10 210 -10 133 0 210 4 210 10 0 6 -12 10 -27 10 -16 0 -43
9 -61 20 -59 36 -62 54 -62 414 l0 324 33 13 c22 9 109 14 280 17 l247 4 0
-600 0 -599 -23 -34 c-26 -39 -60 -59 -99 -59 -16 0 -28 -4 -28 -10 0 -6 78
-10 215 -10 137 0 215 4 215 10 0 6 -14 10 -30 10 -17 0 -44 7 -60 15 -63 33
-60 0 -60 667 l0 608 193 0 c133 0 200 -4 217 -13 33 -17 70 -74 70 -108 0
-16 5 -29 10 -29 6 0 10 47 10 121 0 114 -1 120 -19 114 -63 -20 -183 -25
-581 -25 -405 0 -522 -5 -572 -25 -17 -7 -18 8 -18 229 l0 236 195 0 c212 0
236 -5 269 -54 9 -14 16 -41 16 -61 0 -19 5 -35 10 -35 6 0 10 47 10 120 0 66
-1 120 -2 120 -2 0 -28 -7 -58 -15 -44 -12 -138 -15 -486 -15 -387 0 -494 5
-566 26 -16 5 -18 -5 -18 -115z"/>
<path d="M2080 1400 c0 -16 5 -30 10 -30 6 0 10 14 10 30 0 17 -4 30 -10 30
-5 0 -10 -13 -10 -30z"/>
<path d="M2125 1401 c0 -16 3 -27 8 -24 4 2 7 15 7 29 0 13 -3 24 -7 24 -5 0
-8 -13 -8 -29z"/>
<path d="M2212 1400 c0 -19 2 -27 5 -17 2 9 2 25 0 35 -3 9 -5 1 -5 -18z"/>
<path d="M2314 1417 c3 -10 6 -23 6 -28 0 -16 18 -10 24 8 4 10 4 14 0 10 -4
-4 -13 1 -21 11 -14 16 -14 16 -9 -1z"/>
<path d="M2420 1406 c0 -14 3 -27 8 -29 4 -3 7 8 7 24 0 16 -3 29 -7 29 -5 0
-8 -11 -8 -24z"/>
<path d="M2468 1401 c-4 -28 -3 -30 10 -18 10 11 11 20 4 32 -8 15 -10 13 -14
-14z"/>
<path d="M2552 1400 c0 -19 2 -27 5 -17 2 9 2 25 0 35 -3 9 -5 1 -5 -18z"/>
<path d="M2581 1414 c0 -11 3 -14 6 -6 3 7 2 16 -1 19 -3 4 -6 -2 -5 -13z"/>
<path d="M2650 1423 c0 -5 9 -18 20 -28 11 -10 20 -14 20 -8 0 5 -9 18 -20 28
-11 10 -20 14 -20 8z"/>
</g>
</svg>
